# xmcd
#
# Track frame offsets:
#	150
#	11802
#	29631
#	44362
#	64917
#	77994
#	91230
#	108244
#	121720
#	135652
#	150921
#	163961
#	183462
#	198865
#	216209
#
# Disc length: 3115 seconds
#
# Revision: 1
# Processed by: cddbd v1.5.1PL0 Copyright (c) Steve Scherf et al.
# Submitted via: audiograbber 1.80
#
DISCID=c90c290f
DTITLE=Aage "Oagee" Nordheim - No Back Against The Wall
DYEAR=1900
DGENRE=
TTITLE0=No Back Against The Wall
TTITLE1=Alone
TTITLE2=No Greater Love
TTITLE3=I'd Like To Thank Someone
TTITLE4=Words
TTITLE5=Hard Times Gettin' Over You
TTITLE6=Another Day Of Missing You
TTITLE7=Out Of Range
TTITLE8=I'm Gonna Love Her Like There's No Tomorrow
TTITLE9=Scared
TTITLE10=Fra Vaskebrett Til Vaskeball
TTITLE11=Fra Mitt Hjerte
TTITLE12=Avgiftsblues
TTITLE13=Så Mye Mer
TTITLE14=Det Æ'kke Køntry Alt Som Lukter Hest
EXTD=
EXTT0=
EXTT1=
EXTT2=
EXTT3=
EXTT4=
EXTT5=
EXTT6=
EXTT7=
EXTT8=
EXTT9=
EXTT10=
EXTT11=
EXTT12=
EXTT13=
EXTT14=
PLAYORDER=
